<svg id="Layer_1" fill="#9b9b9b" enable-background="new 0 0 512 512" height="512" viewBox="0 0 512 512" width="512" xmlns="http://www.w3.org/2000/svg"><path d="m407.34 145.79c0 4.42-3.58 8-8 8h-80.38c-4.42 0-8-3.58-8-8s3.58-8 8-8h80.38c4.42 0 8 3.58 8 8zm-8 79.56h-245.1c-4.42 0-8 3.58-8 8s3.58 8 8 8h245.11c4.42 0 8-3.58 8-8s-3.59-8-8.01-8zm0-43.79h-80.38c-4.42 0-8 3.58-8 8s3.58 8 8 8h80.38c4.42 0 8-3.58 8-8s-3.58-8-8-8zm0 87.56h-245.1c-4.42 0-8 3.58-8 8s3.58 8 8 8h245.11c4.42 0 8-3.58 8-8s-3.59-8-8.01-8zm-4.54 43.79h-240.56c-4.42 0-8 3.58-8 8s3.58 8 8 8h240.56c4.42 0 8-3.58 8-8s-3.58-8-8-8zm0 43.77h-240.56c-4.42 0-8 3.58-8 8s3.58 8 8 8h240.56c4.42 0 8-3.58 8-8s-3.58-8-8-8zm-85.34 43.79h-155.22c-4.42 0-8 3.58-8 8s3.58 8 8 8h155.22c4.42 0 8-3.58 8-8s-3.58-8-8-8zm149.94-299.61v361.61c0 4.42-3.58 8-8 8h-40.56v33.53c0 4.42-3.58 8-8 8h-342.24c-4.42 0-8-3.58-8-8v-444.47c0-4.42 3.58-8 8-8h33.58v-43.53c0-4.42 3.58-8 8-8h256.23c2.12 0 4.15.84 5.65 2.34l92.98 92.86c1.51 1.5 2.36 3.54 2.36 5.66zm-92.98-8h65.65l-65.65-65.56zm28.41 377.61h-292.65c-4.42 0-8-3.58-8-8v-394.94h-25.58v428.47h326.23zm48.57-16v-345.61h-84.98c-4.42 0-8-3.58-8-8v-84.86h-240.24v438.47zm-295.62-336.27c-1.25-1.71-1.78-3.86-1.45-5.96s1.48-3.98 3.19-5.23l70.59-51.45c2.81-2.05 6.62-2.05 9.42 0l70.61 51.45c1.72 1.25 2.87 3.13 3.19 5.23.33 2.1-.19 4.24-1.45 5.96l-11.72 16.02c-2.59 3.54-7.55 4.33-11.11 1.78v53.56c0 4.42-3.58 8-8 8h-92.44c-4.42 0-8-3.58-8-8v-53.57c-1.41 1.01-3.04 1.5-4.65 1.5-2.46 0-4.9-1.13-6.46-3.28zm84.6 63.36v-39.44h-15.08v39.44zm30.68 0v-57.22l-38.23-27.86-38.21 27.86v57.23h14.68v-47.44c0-4.42 3.58-8 8-8h31.08c4.42 0 8 3.58 8 8v47.44h14.68zm-97.63-66.34 2.27 3.1 52.41-38.21c1.4-1.02 3.06-1.54 4.71-1.54s3.31.51 4.71 1.53l52.44 38.21 2.27-3.1-59.42-43.29z"/></svg>